<svg width="15" height="20" viewBox="0 0 15 20" fill="none" xmlns="http://www.w3.org/2000/svg">
<path fill-rule="evenodd" clip-rule="evenodd" d="M2.41048 19.0393C1.07921 19.0393 0 17.9232 0 16.5465V8.23733C0 8.20917 0.00135496 8.18133 0.00400147 8.15388H0C0 7.6753 0.18384 7.21632 0.511079 6.87791L5.52697 1.69081C6.46832 0.717322 7.99455 0.717322 8.93591 1.69081L13.9518 6.87792C14.279 7.21633 14.4629 7.67531 14.4629 8.15388H14.4589C14.4615 8.18133 14.4629 8.20917 14.4629 8.23733V16.5465C14.4629 17.9232 13.3837 19.0393 12.0524 19.0393H2.41048ZM7.79959 2.86591L12.8559 8.0948V16.5465C12.8559 17.0054 12.4962 17.3775 12.0524 17.3775H9.64192V13.2229C9.64192 11.8461 8.56271 10.7301 7.23144 10.7301C5.90017 10.7301 4.82096 11.8461 4.82096 13.2229V17.3775H2.41048C1.96672 17.3775 1.60699 17.0054 1.60699 16.5465V8.09486L6.66328 2.86591C6.97707 2.54141 7.48581 2.54141 7.79959 2.86591Z" fill="white" fill-opacity="0.25"/>
</svg>
