<svg width="26" height="29" viewBox="0 0 26 29" fill="none" xmlns="http://www.w3.org/2000/svg">
<path d="M13 19.7436C12.2092 19.7472 11.4289 19.5546 10.723 19.1817C10.0172 18.8087 9.40591 18.2661 8.93937 17.5983L5.6875 19.5518C5.81124 19.701 5.95774 19.8277 6.12109 19.9268L11.9077 23.4153C12.2459 23.596 12.6202 23.6901 13 23.6901C13.3798 23.6901 13.7541 23.596 14.0923 23.4153L19.8789 19.9268C20.0423 19.8277 20.1888 19.701 20.3125 19.5518L17.069 17.5634C16.6052 18.2388 15.9942 18.7889 15.2865 19.1681C14.5789 19.5473 13.7951 19.7446 13 19.7436Z" fill="#3EC6FF"/>
<path d="M7.90859 14.4792C7.91156 13.2389 8.39101 12.0432 9.25531 11.1205C10.1196 10.1979 11.3082 9.61301 12.5938 9.47773V5.71831C12.3987 5.75719 12.2111 5.82467 12.0374 5.91837L6.00498 9.25267C5.6771 9.46303 5.40447 9.74331 5.20845 10.0716C5.01239 10.3999 4.89828 10.7672 4.875 11.1449V17.8134C4.87768 18.0059 4.90986 18.1969 4.97059 18.3803L8.36063 16.5048C8.06419 15.8672 7.91022 15.1772 7.90859 14.4792Z" fill="#3EC6FF"/>
<path d="M20.0545 9.25035L14.3395 5.91825C14.1751 5.82459 13.9973 5.75715 13.8125 5.71831V9.46691C14.5889 9.55591 15.3338 9.82802 15.9872 10.2615C16.6406 10.6949 17.1843 11.2774 17.5745 11.9623C17.9646 12.6471 18.1903 13.415 18.2335 14.2042C18.2766 14.9934 18.136 15.7818 17.8228 16.506L21.0344 18.3803C21.092 18.197 21.1225 18.0061 21.125 17.8138V11.1496C21.1042 10.7708 20.9967 10.4021 20.8109 10.0724C20.6251 9.74282 20.3662 9.46139 20.0545 9.25035Z" fill="#3EC6FF"/>
<path d="M9.34375 14.5C9.34375 15.1866 9.55817 15.8579 9.95991 16.4288C10.3617 16.9998 10.9327 17.4448 11.6008 17.7076C12.2689 17.9703 13.0041 18.0391 13.7133 17.9051C14.4226 17.7712 15.074 17.4405 15.5853 16.9549C16.0967 16.4694 16.4449 15.8508 16.586 15.1773C16.7271 14.5038 16.6547 13.8058 16.3779 13.1714C16.1012 12.537 15.6326 11.9948 15.0313 11.6133C14.4301 11.2318 13.7231 11.0282 13 11.0282C12.0303 11.0282 11.1003 11.3939 10.4147 12.045C9.72896 12.6962 9.34375 13.5792 9.34375 14.5Z" fill="#3EC6FF"/>
<path d="M24.2172 5.91073L14.7828 0.424911C14.2296 0.14549 13.619 0 13 0C12.381 0 11.7705 0.14549 11.2172 0.424911L1.78279 5.91073C1.26494 6.2504 0.833788 6.7079 0.524063 7.24628C0.214378 7.78466 0.0348562 8.3888 0 9.00989V19.9815C0.0342063 20.6039 0.213404 21.2095 0.523088 21.7494C0.832772 22.2893 1.26429 22.7483 1.78279 23.0893L11.2172 28.5752C11.7705 28.8546 12.381 29 13 29C13.619 29 14.2296 28.8546 14.7828 28.5752L24.2172 23.0893C24.7357 22.7483 25.1672 22.2893 25.4769 21.7494C25.7866 21.2095 25.9658 20.6039 26 19.9815V9.00989C25.9651 8.3888 25.7856 7.78466 25.4759 7.24628C25.1662 6.7079 24.7351 6.2504 24.2172 5.91073ZM23.0059 18.7195C22.9782 19.1977 22.8395 19.6626 22.601 20.0771C22.3626 20.4916 22.0309 20.844 21.6325 21.1062L14.3648 25.3299C13.9403 25.5457 13.4713 25.6582 12.9957 25.6582C12.5201 25.6582 12.0512 25.5457 11.6267 25.3299L4.36747 21.1062C3.96914 20.844 3.63744 20.4916 3.39897 20.0771C3.16046 19.6626 3.02181 19.1977 2.9941 18.7195V10.2805C3.02181 9.80233 3.16046 9.33739 3.39897 8.92293C3.63744 8.50844 3.96914 8.15598 4.36747 7.89384L11.6181 3.67005C12.0426 3.45427 12.5116 3.34182 12.9872 3.34182C13.4628 3.34182 13.9318 3.45427 14.3563 3.67005L21.624 7.89384C22.0239 8.15505 22.3573 8.50709 22.5973 8.92163C22.8373 9.33612 22.9773 9.80159 23.0059 10.2805V18.7195Z" fill="#5446F8"/>
</svg>
