<svg width="102" height="15" viewBox="0 0 102 15" fill="none" xmlns="http://www.w3.org/2000/svg">
<path d="M0.5 0.499999V14H8.8625V11.45H3.05V0.499999H0.5ZM13.0088 9.63125C13.0963 10.2187 13.2713 10.6875 13.5338 11.0375C13.7338 11.3125 13.9963 11.525 14.3213 11.675C14.6463 11.825 14.9963 11.9 15.3713 11.9C15.7463 11.9 16.0963 11.825 16.4213 11.675C16.7463 11.525 17.0151 11.3125 17.2276 11.0375C17.2651 10.9875 17.2963 10.9375 17.3213 10.8875C17.3463 10.825 17.3776 10.7687 17.4151 10.7187L19.9463 11.825C19.7838 12.1 19.5838 12.375 19.3463 12.65C18.8713 13.175 18.3088 13.5812 17.6588 13.8687C17.0213 14.1437 16.3463 14.2812 15.6338 14.2812C14.7963 14.2812 14.0151 14.1437 13.2901 13.8687C12.5651 13.5812 11.9651 13.1562 11.4901 12.5937C10.6651 11.5812 10.2526 10.4187 10.2526 9.10625C10.2526 7.54375 10.6651 6.26875 11.4901 5.28125C11.9526 4.73125 12.5213 4.3125 13.1963 4.025C13.8838 3.7375 14.6088 3.59375 15.3713 3.59375C16.1338 3.59375 16.8526 3.7375 17.5276 4.025C18.2151 4.3125 18.7901 4.73125 19.2526 5.28125C19.6651 5.78125 19.9713 6.34375 20.1713 6.96875C20.3838 7.59375 20.4901 8.25 20.4901 8.9375C20.4901 9.1 20.4776 9.33125 20.4526 9.63125H13.0088ZM15.3713 5.975C14.9963 5.975 14.6463 6.05 14.3213 6.2C13.9963 6.3375 13.7338 6.55 13.5338 6.8375C13.3588 7.0625 13.2213 7.3375 13.1213 7.6625H17.6213C17.5213 7.35 17.3901 7.075 17.2276 6.8375C17.0151 6.55 16.7463 6.3375 16.4213 6.2C16.1088 6.05 15.7588 5.975 15.3713 5.975ZM22.4614 5.75L22.6677 5.45C23.5427 4.225 24.8677 3.6125 26.6427 3.6125C27.5927 3.6125 28.4239 3.78125 29.1364 4.11875C29.8614 4.44375 30.4239 4.94375 30.8239 5.61875C31.1864 6.21875 31.3677 6.89375 31.3677 7.64375V14H29.1364V12.275C29.0489 12.525 28.8802 12.7812 28.6302 13.0437C28.3802 13.2937 28.1302 13.4937 27.8802 13.6437C27.5427 13.8562 27.1614 14.0125 26.7364 14.1125C26.3239 14.2125 25.9177 14.2625 25.5177 14.2625C25.0302 14.2625 24.5489 14.1563 24.0739 13.9437C23.5989 13.7312 23.2239 13.4625 22.9489 13.1375C22.6614 12.7375 22.4552 12.3875 22.3302 12.0875C22.2177 11.7875 22.1614 11.4312 22.1614 11.0187C22.1614 10.4812 22.3114 9.96875 22.6114 9.48125C22.9114 8.98125 23.3052 8.5875 23.7927 8.3C24.2177 8.075 24.6177 7.91875 24.9927 7.83125C25.3677 7.73125 25.8552 7.64375 26.4552 7.56875L27.1489 7.45625L28.7802 7.23125C28.6802 6.83125 28.4302 6.51875 28.0302 6.29375C27.6302 6.05625 27.1489 5.95 26.5864 5.975C25.8739 5.975 25.3427 6.18125 24.9927 6.59375C24.9052 6.68125 24.8364 6.76875 24.7864 6.85625L22.4614 5.75ZM26.9614 9.63125C26.2114 9.76875 25.6427 9.91875 25.2552 10.0812C24.8802 10.2437 24.6927 10.5187 24.6927 10.9062C24.6927 11.1937 24.8052 11.4375 25.0302 11.6375C25.2677 11.8375 25.5677 11.9375 25.9302 11.9375C26.5427 11.9375 27.1177 11.7875 27.6552 11.4875C28.2052 11.1875 28.5552 10.7437 28.7052 10.1562C28.7927 9.83125 28.8364 9.5375 28.8364 9.275L26.9614 9.63125ZM36.7456 14H34.1581V0.51875H36.7456V7.49375H37.8144L40.2706 3.875H43.1581L40.0269 8.4875L43.6269 14H40.7769L37.8144 9.4625H36.7456V14ZM56.8623 9.9875C56.6248 10.7875 56.2623 11.5 55.7748 12.125C55.2123 12.8375 54.5123 13.375 53.6748 13.7375C52.8498 14.1 51.956 14.2812 50.9935 14.2812C50.0185 14.2812 49.1185 14.1 48.2935 13.7375C47.4685 13.3625 46.781 12.825 46.231 12.125C45.231 10.8625 44.731 9.275 44.731 7.3625C44.731 5.3 45.231 3.6375 46.231 2.375C46.781 1.6625 47.4685 1.125 48.2935 0.762499C49.1185 0.399999 50.0185 0.218749 50.9935 0.218749C51.9685 0.218749 52.8748 0.406249 53.7123 0.781249C54.5498 1.14375 55.2373 1.675 55.7748 2.375C56.3373 3.1 56.731 3.925 56.956 4.85L55.381 5.1125C55.2185 4.4125 54.9498 3.8125 54.5748 3.3125C54.1623 2.775 53.631 2.36875 52.981 2.09375C52.3435 1.81875 51.656 1.68125 50.9185 1.68125C50.231 1.68125 49.5748 1.825 48.9498 2.1125C48.3373 2.3875 47.8373 2.7875 47.4498 3.3125C46.7248 4.25 46.3623 5.5625 46.3623 7.25C46.3623 8.9125 46.7248 10.2312 47.4498 11.2062C47.8498 11.7312 48.3685 12.1312 49.006 12.4062C49.656 12.6812 50.3435 12.8187 51.0685 12.8187C51.756 12.8187 52.4123 12.6812 53.0373 12.4062C53.6623 12.1187 54.1748 11.7187 54.5748 11.2062C54.9123 10.7312 55.1685 10.1812 55.3435 9.55625L56.8623 9.9875ZM66.5633 4.475C67.2008 4.9625 67.632 5.575 67.857 6.3125C68.082 7.05 68.1883 7.95 68.1758 9.0125V14H66.6383V9.0125C66.6383 8.175 66.5633 7.4875 66.4133 6.95C66.2633 6.4125 65.9633 5.975 65.5133 5.6375C65.0258 5.2875 64.4508 5.1125 63.7883 5.1125C63.4383 5.1125 63.1008 5.1625 62.7758 5.2625C62.4508 5.3625 62.1695 5.51875 61.932 5.73125C61.4695 6.13125 61.1695 6.69375 61.032 7.41875C60.957 7.74375 60.9195 8.20625 60.9195 8.80625V14H59.382V0.499999H60.7508V5.01875L61.0695 4.68125C61.4695 4.33125 61.9195 4.06875 62.4195 3.89375C62.932 3.71875 63.4508 3.63125 63.9758 3.63125C64.4383 3.63125 64.8883 3.70625 65.3258 3.85625C65.7758 3.99375 66.1883 4.2 66.5633 4.475ZM71.8686 9.35C71.9061 10.325 72.1498 11.1062 72.5998 11.6937C72.8623 12.0562 73.2123 12.3375 73.6498 12.5375C74.0873 12.7375 74.5561 12.8375 75.0561 12.8375C75.5561 12.8375 76.0186 12.7375 76.4436 12.5375C76.8811 12.3375 77.2373 12.0562 77.5123 11.6937C77.6248 11.5437 77.7311 11.3625 77.8311 11.15L79.3311 11.8062C79.1561 12.1312 78.9686 12.4125 78.7686 12.65C78.3436 13.175 77.8123 13.5812 77.1748 13.8687C76.5498 14.1437 75.8873 14.2812 75.1873 14.2812C74.4123 14.2812 73.6873 14.1437 73.0123 13.8687C72.3498 13.5937 71.7998 13.1812 71.3623 12.6312C70.5998 11.6687 70.2186 10.4375 70.2186 8.9375C70.2436 7.4125 70.6248 6.18125 71.3623 5.24375C71.7998 4.70625 72.3373 4.3 72.9748 4.025C73.6123 3.7375 74.3061 3.59375 75.0561 3.59375C75.8061 3.59375 76.4936 3.7375 77.1186 4.025C77.7561 4.3 78.2936 4.70625 78.7311 5.24375C79.4936 6.20625 79.8748 7.4375 79.8748 8.9375C79.8748 9.125 79.8686 9.2625 79.8561 9.35H71.8686ZM75.0561 5.0375C74.5561 5.0375 74.0873 5.1375 73.6498 5.3375C73.2123 5.5375 72.8623 5.81875 72.5998 6.18125C72.2248 6.69375 71.9936 7.325 71.9061 8.075H78.2061C78.1186 7.325 77.8873 6.69375 77.5123 6.18125C77.2373 5.81875 76.8811 5.5375 76.4436 5.3375C76.0186 5.1375 75.5561 5.0375 75.0561 5.0375ZM89.372 6.74375C89.322 6.63125 89.2095 6.44375 89.0345 6.18125C88.7595 5.80625 88.4032 5.525 87.9657 5.3375C87.5407 5.1375 87.072 5.0375 86.5595 5.0375C86.0595 5.0375 85.5907 5.1375 85.1532 5.3375C84.7282 5.525 84.3844 5.80625 84.122 6.18125C83.6344 6.81875 83.3782 7.7375 83.3532 8.9375C83.3782 10.1375 83.6344 11.0562 84.122 11.6937C84.3844 12.0562 84.7344 12.3375 85.172 12.5375C85.6095 12.725 86.072 12.8187 86.5595 12.8187C87.072 12.8187 87.5407 12.725 87.9657 12.5375C88.4032 12.3375 88.7595 12.0562 89.0345 11.6937C89.1595 11.5062 89.2657 11.325 89.3532 11.15L90.797 11.7875C90.572 12.1625 90.3907 12.4375 90.2532 12.6125C89.8157 13.1625 89.2782 13.5812 88.6407 13.8687C88.0032 14.1437 87.3095 14.2812 86.5595 14.2812C85.822 14.2812 85.1282 14.1437 84.4782 13.8687C83.8407 13.5812 83.3094 13.1625 82.8844 12.6125C82.1469 11.6875 81.7657 10.4625 81.7407 8.9375C81.7657 7.4125 82.1469 6.18125 82.8844 5.24375C83.3344 4.68125 83.8719 4.26875 84.4969 4.00625C85.122 3.73125 85.8095 3.59375 86.5595 3.59375C87.3095 3.59375 88.0032 3.7375 88.6407 4.025C89.2782 4.3 89.8157 4.70625 90.2532 5.24375C90.4907 5.56875 90.672 5.8625 90.797 6.125L89.372 6.74375ZM94.6784 14H93.1409L93.1222 0.499999H94.6784V7.85H96.5909L99.2909 3.875H101.053L97.9034 8.4875L101.522 14H99.7972L96.5909 9.125H94.6784V14Z" fill="#EBEBEB"/>
</svg>
