<svg width="178" height="29" viewBox="0 0 178 29" fill="none" xmlns="http://www.w3.org/2000/svg">
<path d="M13 19.7436C12.2092 19.7472 11.4289 19.5546 10.723 19.1817C10.0172 18.8087 9.40591 18.2661 8.93937 17.5983L5.6875 19.5518C5.81124 19.701 5.95774 19.8277 6.12109 19.9268L11.9077 23.4153C12.2459 23.596 12.6202 23.6901 13 23.6901C13.3798 23.6901 13.7541 23.596 14.0923 23.4153L19.8789 19.9268C20.0423 19.8277 20.1888 19.701 20.3125 19.5518L17.069 17.5634C16.6052 18.2388 15.9942 18.7889 15.2865 19.1681C14.5789 19.5473 13.7951 19.7446 13 19.7436Z" fill="#3EC6FF"/>
<path d="M7.90859 14.4792C7.91156 13.2389 8.39101 12.0432 9.25531 11.1205C10.1196 10.1979 11.3082 9.61301 12.5938 9.47773V5.71831C12.3987 5.75719 12.2111 5.82467 12.0374 5.91837L6.00498 9.25267C5.6771 9.46303 5.40447 9.74331 5.20845 10.0716C5.01239 10.3999 4.89828 10.7672 4.875 11.1449V17.8134C4.87768 18.0059 4.90986 18.1969 4.97059 18.3803L8.36063 16.5048C8.06419 15.8672 7.91022 15.1772 7.90859 14.4792Z" fill="#3EC6FF"/>
<path d="M20.0545 9.25035L14.3395 5.91825C14.1751 5.82459 13.9973 5.75715 13.8125 5.71831V9.46691C14.5889 9.55591 15.3338 9.82802 15.9872 10.2615C16.6406 10.6949 17.1843 11.2774 17.5745 11.9623C17.9646 12.6471 18.1903 13.415 18.2335 14.2042C18.2766 14.9934 18.136 15.7818 17.8228 16.506L21.0344 18.3803C21.092 18.197 21.1225 18.0061 21.125 17.8138V11.1496C21.1042 10.7708 20.9967 10.4021 20.8109 10.0724C20.6251 9.74282 20.3662 9.46139 20.0545 9.25035Z" fill="#3EC6FF"/>
<path d="M9.34375 14.5C9.34375 15.1866 9.55817 15.8579 9.95991 16.4288C10.3617 16.9998 10.9327 17.4448 11.6008 17.7076C12.2689 17.9703 13.0041 18.0391 13.7133 17.9051C14.4226 17.7712 15.074 17.4405 15.5853 16.9549C16.0967 16.4694 16.4449 15.8508 16.586 15.1773C16.7271 14.5038 16.6547 13.8058 16.3779 13.1714C16.1012 12.537 15.6326 11.9948 15.0313 11.6133C14.4301 11.2318 13.7231 11.0282 13 11.0282C12.0303 11.0282 11.1003 11.3939 10.4147 12.045C9.72896 12.6962 9.34375 13.5792 9.34375 14.5Z" fill="#3EC6FF"/>
<path d="M24.2172 5.91073L14.7828 0.424911C14.2296 0.14549 13.619 0 13 0C12.381 0 11.7705 0.14549 11.2172 0.424911L1.78279 5.91073C1.26494 6.2504 0.833788 6.7079 0.524063 7.24628C0.214378 7.78466 0.0348562 8.3888 0 9.00989V19.9815C0.0342063 20.6039 0.213404 21.2095 0.523088 21.7494C0.832772 22.2893 1.26429 22.7483 1.78279 23.0893L11.2172 28.5752C11.7705 28.8546 12.381 29 13 29C13.619 29 14.2296 28.8546 14.7828 28.5752L24.2172 23.0893C24.7357 22.7483 25.1672 22.2893 25.4769 21.7494C25.7866 21.2095 25.9658 20.6039 26 19.9815V9.00989C25.9651 8.3888 25.7856 7.78466 25.4759 7.24628C25.1662 6.7079 24.7351 6.2504 24.2172 5.91073ZM23.0059 18.7195C22.9782 19.1977 22.8395 19.6626 22.601 20.0771C22.3626 20.4916 22.0309 20.844 21.6325 21.1062L14.3648 25.3299C13.9403 25.5457 13.4713 25.6582 12.9957 25.6582C12.5201 25.6582 12.0512 25.5457 11.6267 25.3299L4.36747 21.1062C3.96914 20.844 3.63744 20.4916 3.39897 20.0771C3.16046 19.6626 3.02181 19.1977 2.9941 18.7195V10.2805C3.02181 9.80233 3.16046 9.33739 3.39897 8.92293C3.63744 8.50844 3.96914 8.15598 4.36747 7.89384L11.6181 3.67005C12.0426 3.45427 12.5116 3.34182 12.9872 3.34182C13.4628 3.34182 13.9318 3.45427 14.3563 3.67005L21.624 7.89384C22.0239 8.15505 22.3573 8.50709 22.5973 8.92163C22.8373 9.33612 22.9773 9.80159 23.0059 10.2805V18.7195Z" fill="#5446F8"/>
<path d="M37.3333 8V20H44.7667V17.7333H39.6V8H37.3333ZM48.9356 10.2667V12.8667H53.5023V15.1333H48.9356V17.7333H54.5023V20H46.669V8H54.5023V10.2667H48.9356ZM63.7108 18.1333H58.8108L58.2442 20H55.9108L59.5775 8H62.9608L66.6275 20H64.2942L63.7108 18.1333ZM63.0608 16L61.2442 10.1333L59.4608 16H63.0608ZM70.6715 14.6333V20H68.3715V8H70.6715V12.8833H72.3381L75.3381 8H78.0715L74.3381 13.75L78.4048 20H75.6548L72.3381 14.6333H70.6715ZM90.1175 16.5C89.8842 17.1778 89.5564 17.7722 89.1342 18.2833C88.6008 18.9278 87.9453 19.4167 87.1675 19.75C86.4008 20.0833 85.5842 20.25 84.7175 20.25C83.8286 20.25 82.9953 20.0778 82.2175 19.7333C81.4397 19.3889 80.8008 18.9056 80.3008 18.2833C79.3564 17.1389 78.8842 15.7111 78.8842 14C78.8842 12.2667 79.3564 10.8333 80.3008 9.7C80.8119 9.05556 81.4508 8.57222 82.2175 8.25C82.9953 7.91667 83.8286 7.75 84.7175 7.75C85.6064 7.75 86.4342 7.91667 87.2008 8.25C87.9675 8.58333 88.6119 9.06667 89.1342 9.7C89.6231 10.3111 89.9897 11.0222 90.2342 11.8333L87.9008 12.2333C87.7453 11.7444 87.5564 11.3611 87.3342 11.0833C87.0453 10.6944 86.6675 10.3944 86.2008 10.1833C85.7342 9.97222 85.2397 9.86667 84.7175 9.86667C84.1842 9.86667 83.6842 9.97222 83.2175 10.1833C82.7619 10.3944 82.3897 10.6944 82.1008 11.0833C81.5786 11.75 81.3064 12.7222 81.2842 14C81.3064 15.2667 81.5786 16.2389 82.1008 16.9167C82.3786 17.3056 82.7453 17.6056 83.2008 17.8167C83.6564 18.0167 84.1397 18.1167 84.6508 18.1167C85.1953 18.1167 85.7008 18.0167 86.1675 17.8167C86.6453 17.6167 87.0342 17.3167 87.3342 16.9167C87.5675 16.5944 87.7453 16.2389 87.8675 15.85L90.1175 16.5ZM102.458 8V20H100.192V16H94.825V20H92.5583V8H94.825V13.7333H100.192V8H102.458ZM107.707 10.2667V12.8667H112.274V15.1333H107.707V17.7333H113.274V20H105.441V8H113.274V10.2667H107.707ZM126.077 16.5C125.844 17.1778 125.516 17.7722 125.094 18.2833C124.561 18.9278 123.905 19.4167 123.127 19.75C122.361 20.0833 121.544 20.25 120.677 20.25C119.789 20.25 118.955 20.0778 118.177 19.7333C117.4 19.3889 116.761 18.9056 116.261 18.2833C115.316 17.1389 114.844 15.7111 114.844 14C114.844 12.2667 115.316 10.8333 116.261 9.7C116.772 9.05556 117.411 8.57222 118.177 8.25C118.955 7.91667 119.789 7.75 120.677 7.75C121.566 7.75 122.394 7.91667 123.161 8.25C123.927 8.58333 124.572 9.06667 125.094 9.7C125.583 10.3111 125.95 11.0222 126.194 11.8333L123.861 12.2333C123.705 11.7444 123.516 11.3611 123.294 11.0833C123.005 10.6944 122.627 10.3944 122.161 10.1833C121.694 9.97222 121.2 9.86667 120.677 9.86667C120.144 9.86667 119.644 9.97222 119.177 10.1833C118.722 10.3944 118.35 10.6944 118.061 11.0833C117.539 11.75 117.266 12.7222 117.244 14C117.266 15.2667 117.539 16.2389 118.061 16.9167C118.339 17.3056 118.705 17.6056 119.161 17.8167C119.616 18.0167 120.1 18.1167 120.611 18.1167C121.155 18.1167 121.661 18.0167 122.127 17.8167C122.605 17.6167 122.994 17.3167 123.294 16.9167C123.527 16.5944 123.705 16.2389 123.827 15.85L126.077 16.5ZM130.818 14.6333V20H128.518V8H130.818V12.8833H132.485L135.485 8H138.218L134.485 13.75L138.552 20H135.802L132.485 14.6333H130.818ZM142.664 17.7333V20H140.398V17.7333H142.664Z" fill="#EBEBEB"/>
<path d="M153.362 15.8333V8H155.662V20H153.662L148.162 12.1667V20H145.846V8H147.846L153.362 15.8333ZM160.917 10.2667V12.8667H165.484V15.1333H160.917V17.7333H166.484V20H158.65V8H166.484V10.2667H160.917ZM177.809 10.2667H174.025V20H171.759V10.2667H167.975V8H177.809V10.2667Z" fill="#3AB8FF"/>
</svg>
