<svg width="18" height="15" viewBox="0 0 18 15" fill="none" xmlns="http://www.w3.org/2000/svg">
<path fill-rule="evenodd" clip-rule="evenodd" d="M0.00931786 1.61906C0.00931786 1.09628 0.436505 0.672485 0.963466 0.672485H16.2205C16.7475 0.672485 17.1747 1.09628 17.1747 1.61906V12.3383C17.1747 13.3838 16.3203 14.2314 15.2664 14.2314H1.9083C0.854374 14.2314 0 13.3838 0 12.3383V1.92596C0 1.88088 0.00317594 1.83654 0.00931786 1.79315V1.61906ZM1.9083 3.72401V12.3383H15.2664V3.72434L10.6116 8.34221C9.4937 9.45119 7.6813 9.45119 6.56345 8.34221L1.9083 3.72401ZM3.40853 2.53502H13.7665L9.26219 7.00355C8.88957 7.37321 8.28543 7.37321 7.91282 7.00355L3.40853 2.53502Z" fill="white" fill-opacity="0.25"/>
</svg>
