<svg width="18" height="19" viewBox="0 0 18 19" fill="none" xmlns="http://www.w3.org/2000/svg">
<path d="M4.29367 13.9716C4.29367 14.346 3.97328 14.6496 3.57806 14.6496C3.18284 14.6496 2.86245 14.346 2.86245 13.9716C2.86245 13.5972 3.18284 13.2937 3.57806 13.2937C3.97328 13.2937 4.29367 13.5972 4.29367 13.9716Z" fill="white" fill-opacity="0.25"/>
<path d="M6.4405 14.6496C6.83572 14.6496 7.15611 14.346 7.15611 13.9716C7.15611 13.5972 6.83572 13.2937 6.4405 13.2937C6.04528 13.2937 5.72489 13.5972 5.72489 13.9716C5.72489 14.346 6.04528 14.6496 6.4405 14.6496Z" fill="white" fill-opacity="0.25"/>
<path d="M10.0186 13.9716C10.0186 14.346 9.69817 14.6496 9.30295 14.6496C8.90773 14.6496 8.58734 14.346 8.58734 13.9716C8.58734 13.5972 8.90773 13.2937 9.30295 13.2937C9.69817 13.2937 10.0186 13.5972 10.0186 13.9716Z" fill="white" fill-opacity="0.25"/>
<path d="M14.3122 13.2937H11.4498V14.6496H14.3122V13.2937Z" fill="white" fill-opacity="0.25"/>
<path fill-rule="evenodd" clip-rule="evenodd" d="M1.43122 9.90393C0.64078 9.90393 0 10.511 0 11.2598V16.6834C0 17.4322 0.64078 18.0393 1.43122 18.0393H15.7435C16.5339 18.0393 17.1747 17.4322 17.1747 16.6834V11.2598C17.1747 10.511 16.5339 9.90393 15.7435 9.90393H1.43122ZM15.7435 11.2598H1.43122L1.43122 16.6834H15.7435V11.2598Z" fill="white" fill-opacity="0.25"/>
<path d="M4.29367 4.93231C4.29367 5.30673 3.97328 5.61026 3.57806 5.61026C3.18284 5.61026 2.86245 5.30673 2.86245 4.93231C2.86245 4.55789 3.18284 4.25436 3.57806 4.25436C3.97328 4.25436 4.29367 4.55789 4.29367 4.93231Z" fill="white" fill-opacity="0.25"/>
<path d="M6.4405 5.61026C6.83572 5.61026 7.15611 5.30673 7.15611 4.93231C7.15611 4.55789 6.83572 4.25436 6.4405 4.25436C6.04528 4.25436 5.72489 4.55789 5.72489 4.93231C5.72489 5.30673 6.04528 5.61026 6.4405 5.61026Z" fill="white" fill-opacity="0.25"/>
<path d="M10.0186 4.93231C10.0186 5.30673 9.69817 5.61026 9.30295 5.61026C8.90773 5.61026 8.58734 5.30673 8.58734 4.93231C8.58734 4.55789 8.90773 4.25436 9.30295 4.25436C9.69817 4.25436 10.0186 4.55789 10.0186 4.93231Z" fill="white" fill-opacity="0.25"/>
<path d="M14.3122 4.25436H11.4498V5.61026H14.3122V4.25436Z" fill="white" fill-opacity="0.25"/>
<path fill-rule="evenodd" clip-rule="evenodd" d="M1.43122 0.864624C0.64078 0.864624 0 1.47168 0 2.22052V7.6441C0 8.39294 0.64078 9 1.43122 9H15.7435C16.5339 9 17.1747 8.39294 17.1747 7.6441V2.22052C17.1747 1.47168 16.5339 0.864624 15.7435 0.864624H1.43122ZM15.7435 2.22052H1.43122L1.43122 7.6441H15.7435V2.22052Z" fill="white" fill-opacity="0.25"/>
</svg>
