<svg width="18" height="19" viewBox="0 0 18 19" fill="none" xmlns="http://www.w3.org/2000/svg">
<path d="M5.00928 10.8832C5.79972 10.8832 6.4405 10.2424 6.4405 9.45196C6.4405 8.66152 5.79972 8.02074 5.00928 8.02074C4.21884 8.02074 3.57806 8.66152 3.57806 9.45196C3.57806 10.2424 4.21884 10.8832 5.00928 10.8832Z" fill="white" fill-opacity="0.25"/>
<path d="M10.0186 9.45196C10.0186 10.2424 9.37778 10.8832 8.58734 10.8832C7.79689 10.8832 7.15611 10.2424 7.15611 9.45196C7.15611 8.66152 7.79689 8.02074 8.58734 8.02074C9.37778 8.02074 10.0186 8.66152 10.0186 9.45196Z" fill="white" fill-opacity="0.25"/>
<path d="M12.1654 10.8832C12.9558 10.8832 13.5966 10.2424 13.5966 9.45196C13.5966 8.66152 12.9558 8.02074 12.1654 8.02074C11.375 8.02074 10.7342 8.66152 10.7342 9.45196C10.7342 10.2424 11.375 10.8832 12.1654 10.8832Z" fill="white" fill-opacity="0.25"/>
<path fill-rule="evenodd" clip-rule="evenodd" d="M17.1747 9.45196C17.1747 14.1946 13.33 18.0393 8.58734 18.0393C3.84468 18.0393 0 14.1946 0 9.45196C0 4.70931 3.84468 0.864624 8.58734 0.864624C13.33 0.864624 17.1747 4.70931 17.1747 9.45196ZM15.7435 9.45196C15.7435 13.4042 12.5395 16.6081 8.58734 16.6081C4.63512 16.6081 1.43122 13.4042 1.43122 9.45196C1.43122 5.49975 4.63512 2.29585 8.58734 2.29585C12.5395 2.29585 15.7435 5.49975 15.7435 9.45196Z" fill="white" fill-opacity="0.25"/>
</svg>
