<svg width="13" height="13" viewBox="0 0 13 13" fill="none" xmlns="http://www.w3.org/2000/svg">
<path d="M12.5847 11.8409L9.49064 8.623C10.2862 7.67732 10.722 6.48745 10.722 5.24874C10.722 2.35463 8.36741 0 5.47329 0C2.57918 0 0.224548 2.35463 0.224548 5.24874C0.224548 8.14286 2.57918 10.4975 5.47329 10.4975C6.55978 10.4975 7.59516 10.1698 8.48037 9.5477L11.5979 12.7901C11.7282 12.9254 11.9035 13 12.0913 13C12.269 13 12.4377 12.9322 12.5657 12.809C12.8377 12.5472 12.8464 12.1132 12.5847 11.8409ZM5.47329 1.36924C7.6125 1.36924 9.3528 3.10954 9.3528 5.24874C9.3528 7.38795 7.6125 9.12825 5.47329 9.12825C3.33409 9.12825 1.59379 7.38795 1.59379 5.24874C1.59379 3.10954 3.33409 1.36924 5.47329 1.36924Z" fill="white"/>
</svg>
